<svg width="24" height="24" viewBox="0 0 24 24" fill="none" xmlns="http://www.w3.org/2000/svg">
<g clip-path="url(#clip0_1_418)">
<path fill-rule="evenodd" clip-rule="evenodd" d="M17.2929 8.293C17.3852 8.19749 17.4955 8.1213 17.6175 8.0689C17.7395 8.01649 17.8708 7.9889 18.0035 7.98775C18.1363 7.98659 18.268 8.01189 18.3909 8.06218C18.5138 8.11246 18.6255 8.18671 18.7193 8.2806C18.8132 8.3745 18.8875 8.48615 18.9378 8.60904C18.9881 8.73194 19.0134 8.86362 19.0122 8.9964C19.011 9.12918 18.9835 9.2604 18.9311 9.3824C18.8786 9.50441 18.8025 9.61475 18.707 9.707L12.707 15.707C12.5247 15.8893 12.2792 15.9941 12.0215 15.9997C11.7638 16.0053 11.5139 15.9112 11.324 15.737L5.32395 10.237C5.12849 10.0577 5.01225 9.80812 5.00081 9.54313C4.99514 9.41192 5.01538 9.28088 5.06036 9.15749C5.10534 9.0341 5.17418 8.92078 5.26295 8.824C5.35172 8.72721 5.45869 8.64886 5.57774 8.59342C5.6968 8.53797 5.82561 8.50652 5.95682 8.50086C6.22181 8.48942 6.48049 8.58371 6.67595 8.763L11.97 13.616L17.2929 8.293Z" fill="#848895"/>
</g>
<defs>
<clipPath id="clip0_1_418">
<rect width="24" height="24" fill="white"/>
</clipPath>
</defs>
</svg>
